<svg id="Rental_Property" data-name="Rental Property" xmlns="http://www.w3.org/2000/svg" viewBox="0 0 1920 1080"><defs><style>.cls-1{fill:#ffc8ce;}.cls-2{fill:#d7e9ff;}.cls-27,.cls-3,.cls-30{fill:#1651da;}.cls-31,.cls-4{fill:#1f398e;}.cls-5{fill:#31536c;}.cls-6{fill:#bbd8f9;}.cls-24,.cls-25,.cls-28,.cls-29,.cls-7{fill:#edf4ff;}.cls-8{isolation:isolate;}.cls-9{fill:#0e766d;}.cls-10{fill:#28d4bf;}.cls-11{fill:#0d7fc6;}.cls-12{fill:#e5e5e5;}.cls-13{fill:#cbc7be;}.cls-14{fill:#d4cfc7;}.cls-15{fill:#152e77;}.cls-16{opacity:0.3;}.cls-17{fill:#b79570;}.cls-18{opacity:0.5;}.cls-19{fill:#11b7a3;}.cls-20{fill:#58ead3;}.cls-21{fill:#703e03;}.cls-22{fill:#e11d4a;}.cls-23{fill:#f57385;}.cls-24{font-size:95.64px;}.cls-24,.cls-27,.cls-28,.cls-29,.cls-30{font-family:OpenSans-Bold, Open Sans;font-weight:700;}.cls-25{font-size:87.82px;}.cls-25,.cls-31{font-family:OpenSans-ExtraBold, Open Sans;font-weight:800;}.cls-26{fill:#abe2f5;}.cls-27{font-size:37.32px;}.cls-28{font-size:61.85px;}.cls-29{font-size:52.48px;}.cls-30{font-size:27.55px;}.cls-31{font-size:29.33px;}.cls-32{fill:#99c0f0;}</style></defs><rect class="cls-1" width="1920" height="1080"/><path class="cls-2" d="M1718.53,796.92,1220.91,509.45c-19.27-11.12-34.89-41-34.89-66.65V52.43c0-25.69,15.62-37.49,34.89-26.37l497.62,287.47c19.26,11.12,34.88,41,34.88,66.65V770.55C1753.41,796.24,1737.79,808.05,1718.53,796.92Z"/><path class="cls-3" d="M1723,776.86,1230.71,492.49c-15.5-9.85-25.09-29.54-25.09-49.69V50.54a6.18,6.18,0,0,1,9.31-5.33l1.09.64,492.71,284.64c18.45,10.64,25.09,29.55,25.09,49.69V771.53a6.69,6.69,0,0,1-10,5.8Z"/><path class="cls-4" d="M1708.72,330.49,1216,45.85l-1.09-.64a6.18,6.18,0,0,0-9.31,5.33V442.8c0,20.15,9.59,39.84,25.09,49.69L1723,776.86l.81.47a6.69,6.69,0,0,0,10-5.8V380.18C1733.82,360,1727.18,341.13,1708.72,330.49Zm21.18,441a2.77,2.77,0,0,1-2.77,2.76,2.7,2.7,0,0,1-1.36-.37L1232.67,489.1c-14-8.9-23.14-27.11-23.14-46.3V50.54a2.29,2.29,0,0,1,2.28-2.27,2.26,2.26,0,0,1,1.14.32l493.81,285.29c19.13,11,23.14,31.27,23.14,46.3Z"/><path class="cls-4" d="M1728.41,308.28,1230.79,20.81c-7.62-4.4-14.67-5.21-20.41-3-.73.29-10.45,5.45-11.14,5.83l0,0c5.94-2.88,13.48-2.34,21.7,2.4l497.62,287.47c19.26,11.12,34.88,41,34.88,66.65V770.55c0,16-6.08,26.66-15.34,29.68a5.86,5.86,0,0,0,3.06-1.05c.44-.25,11-6.2,11.41-6.5,6.63-4.64,10.76-14.18,10.76-27.38V374.93C1763.3,349.24,1747.68,319.4,1728.41,308.28Z"/><path class="cls-5" d="M1728.41,308.28,1230.79,20.81c-7.62-4.4-14.67-5.21-20.41-3-.73.29-10.45,5.45-11.14,5.83l0,0c5.94-2.88,13.48-2.34,21.7,2.4l497.62,287.47Z"/><path class="cls-6" d="M1720.2,312.69,1222.58,25.22c-7.9-4.56-15.16-5.21-21-2.68,5-.79,10.72.41,16.83,3.94L1716,314c19.26,11.12,34.88,41,34.88,66.65V771c0,15.16-5.46,25.42-13.87,29.06,10.76-1.71,18-12.76,18-30.31V379.34C1755.08,353.66,1739.47,323.82,1720.2,312.69Z"/><path class="cls-4" d="M1737,814.77l-70.14-9.26L1214,544.09c-14.51-8.38-39.87-7.33-56.63,2.35L836.54,731.61,794.13,726v24.07h0c-.28,5.56,2.89,10.91,9.74,14.87l513.14,296.26c14.52,8.39,39.88,7.33,56.64-2.34L1723.1,857.2c9.43-5.45,14.13-12.46,13.86-19.05h0Z"/><path class="cls-4" d="M1396.75,649.59,1364.58,631H1010.9L836.54,731.61,794.13,726v24.07h0c-.28,5.56,2.89,10.91,9.74,14.87l513.14,296.26c7.68,4.43,18.38,6.2,29.23,5.48Z"/><path class="cls-7" d="M1317.05,1037.18,803.91,740.91c-14.52-8.38-12.7-23,4.06-32.7l349.42-201.67c16.76-9.67,42.12-10.72,56.63-2.34l513.15,296.26c14.52,8.38,12.7,23-4.07,32.7l-349.41,201.67C1356.93,1044.51,1331.57,1045.56,1317.05,1037.18Z"/><path class="cls-6" d="M1723.1,824.37,1373.69,1026c-16.76,9.68-42.12,10.73-56.64,2.35L803.91,732.12c-4.76-2.75-7.73-6.17-9-9.87-2.27,6.87.63,13.81,9.6,19l513.15,296.27c13.94,8,39.3,7,56.06-2.68L1723.1,833.16c11.27-6.5,15.75-15.24,13.1-22.83C1734.54,815.34,1730.17,820.29,1723.1,824.37Z"/><path class="cls-4" d="M994.25,654,971,640.63c-1.86-1.08-1.63-3,.53-4.2L999,620.61a8.07,8.07,0,0,1,7.27-.3l23.22,13.4c1.87,1.08,1.63,3-.52,4.2l-27.41,15.82A8.08,8.08,0,0,1,994.25,654Z"/><path class="cls-4" d="M1030.11,674.74l-23.22-13.41c-1.87-1.07-1.63-3,.52-4.2l27.41-15.82a8.07,8.07,0,0,1,7.27-.3l23.22,13.4c1.86,1.08,1.63,3-.53,4.2l-27.4,15.82A8.08,8.08,0,0,1,1030.11,674.74Z"/><path class="cls-4" d="M1066,695.44,1042.74,682c-1.86-1.07-1.63-2.95.53-4.2l27.4-15.82a8.07,8.07,0,0,1,7.27-.3l23.22,13.4c1.87,1.08,1.63,3-.52,4.2l-27.41,15.83A8.1,8.1,0,0,1,1066,695.44Z"/><path class="cls-4" d="M1115.55,678.34l-23.22-13.4c-1.86-1.08-1.63-3,.53-4.2l23-13.28a8.08,8.08,0,0,1,7.27-.31l23.22,13.41c1.87,1.08,1.63,3-.52,4.2l-23,13.28A8.07,8.07,0,0,1,1115.55,678.34Z"/><path class="cls-4" d="M1151.41,699l-23.22-13.4c-1.87-1.08-1.63-3,.52-4.2l23-13.28a8,8,0,0,1,7.27-.3l23.22,13.4c1.86,1.08,1.63,3-.52,4.2l-23,13.28A8.07,8.07,0,0,1,1151.41,699Z"/><path class="cls-4" d="M1187.26,719.74,1164,706.34c-1.86-1.08-1.63-3,.53-4.2l23-13.28a8.07,8.07,0,0,1,7.27-.3l23.22,13.4c1.87,1.08,1.63,3-.52,4.2l-23,13.28A8.06,8.06,0,0,1,1187.26,719.74Z"/><path class="cls-4" d="M1223.12,740.45,1199.9,727c-1.86-1.08-1.63-3,.52-4.2l23-13.28a8.07,8.07,0,0,1,7.27-.3l23.22,13.4c1.86,1.08,1.63,3-.52,4.2l-23,13.28A8.08,8.08,0,0,1,1223.12,740.45Z"/><path class="cls-4" d="M1259,761.15l-23.21-13.41c-1.87-1.07-1.64-3,.52-4.2l23-13.28a8.09,8.09,0,0,1,7.28-.3l23.21,13.4c1.87,1.08,1.63,3-.52,4.2l-23,13.28A8.1,8.1,0,0,1,1259,761.15Z"/><path class="cls-4" d="M1294.83,781.85l-23.22-13.41c-1.86-1.07-1.63-3,.52-4.2l23-13.28a8.07,8.07,0,0,1,7.27-.3l23.22,13.4c1.86,1.08,1.63,3-.52,4.2l-23,13.29A8.11,8.11,0,0,1,1294.83,781.85Z"/><path class="cls-4" d="M1330.68,802.55l-23.21-13.41c-1.87-1.07-1.63-2.95.52-4.19l23-13.29a8.1,8.1,0,0,1,7.28-.3l23.21,13.41c1.87,1.07,1.63,3-.52,4.19l-23,13.29A8.1,8.1,0,0,1,1330.68,802.55Z"/><path class="cls-4" d="M1366.54,823.25l-23.22-13.41c-1.86-1.07-1.63-3,.52-4.19l23-13.29a8.11,8.11,0,0,1,7.27-.3l23.22,13.41c1.86,1.07,1.63,2.95-.52,4.2l-23,13.28A8.07,8.07,0,0,1,1366.54,823.25Z"/><path class="cls-4" d="M1402.4,844l-23.22-13.4c-1.87-1.08-1.63-3,.52-4.2l23-13.28a8.1,8.1,0,0,1,7.28-.31l23.22,13.41c1.86,1.07,1.63,3-.53,4.2l-23,13.28A8.07,8.07,0,0,1,1402.4,844Z"/><path class="cls-4" d="M1438.25,864.65,1415,851.25c-1.86-1.08-1.63-3,.52-4.2l23-13.28a8.08,8.08,0,0,1,7.27-.31l23.22,13.41c1.87,1.08,1.63,3-.52,4.2l-23,13.28A8.07,8.07,0,0,1,1438.25,864.65Z"/><path class="cls-4" d="M1168.38,668.54l-23.22-13.4c-1.86-1.08-1.63-3,.53-4.2l23-13.29a8.11,8.11,0,0,1,7.27-.3l23.22,13.41c1.87,1.07,1.63,3-.52,4.2l-23,13.28A8.1,8.1,0,0,1,1168.38,668.54Z"/><path class="cls-4" d="M1132,647.53l-23.22-13.4c-1.86-1.08-1.63-3,.53-4.2l23-13.28a8.08,8.08,0,0,1,7.27-.31l23.22,13.41c1.87,1.08,1.63,3-.52,4.2l-23,13.28A8.07,8.07,0,0,1,1132,647.53Z"/><path class="cls-4" d="M1095.54,626.49l-50-28.87c-1.87-1.08-1.63-3,.52-4.2l23-13.29a8.13,8.13,0,0,1,7.28-.3l50,28.87c1.87,1.08,1.63,3-.52,4.2l-23,13.28A8.08,8.08,0,0,1,1095.54,626.49Z"/><path class="cls-4" d="M1121,600.89l-40.58-23.43c-1.86-1.07-1.63-3,.52-4.19L1104,560a8.1,8.1,0,0,1,7.27-.3l40.58,23.43c1.86,1.08,1.63,3-.52,4.2l-23,13.28A8.07,8.07,0,0,1,1121,600.89Z"/><path class="cls-4" d="M1204.24,689.24,1181,675.84c-1.86-1.08-1.63-3,.52-4.2l23-13.28a8.08,8.08,0,0,1,7.27-.31L1235,671.46c1.86,1.08,1.63,3-.52,4.2l-23,13.28A8.07,8.07,0,0,1,1204.24,689.24Z"/><path class="cls-4" d="M1240.09,709.94l-23.21-13.4c-1.87-1.08-1.64-3,.52-4.2l23-13.28a8.06,8.06,0,0,1,7.28-.3l23.21,13.4c1.87,1.08,1.63,3-.52,4.2l-23,13.28A8.1,8.1,0,0,1,1240.09,709.94Z"/><path class="cls-4" d="M1276,730.64l-23.22-13.4c-1.86-1.08-1.63-3,.52-4.2l23-13.28a8.07,8.07,0,0,1,7.27-.3l23.22,13.4c1.86,1.08,1.63,3-.52,4.2l-23,13.28A8,8,0,0,1,1276,730.64Z"/><path class="cls-4" d="M1311.8,751.35l-23.21-13.41c-1.87-1.08-1.63-3,.52-4.2l23-13.28a8.1,8.1,0,0,1,7.28-.3l23.21,13.4c1.87,1.08,1.63,3-.52,4.2l-23,13.28A8.1,8.1,0,0,1,1311.8,751.35Z"/><path class="cls-4" d="M1347.66,772.05l-23.22-13.41c-1.86-1.07-1.63-2.95.52-4.2l23-13.28a8.07,8.07,0,0,1,7.27-.3l23.22,13.4c1.86,1.08,1.63,3-.52,4.2l-23,13.29A8.11,8.11,0,0,1,1347.66,772.05Z"/><path class="cls-4" d="M1383.51,792.75l-23.21-13.41c-1.87-1.07-1.63-3,.52-4.2l23-13.28a8.1,8.1,0,0,1,7.28-.3L1414.32,775c1.86,1.07,1.63,2.95-.53,4.19l-23,13.29A8.13,8.13,0,0,1,1383.51,792.75Z"/><path class="cls-4" d="M1419.37,813.45,1396.15,800c-1.86-1.07-1.63-2.95.52-4.2l23-13.28a8.11,8.11,0,0,1,7.27-.3l23.22,13.41c1.86,1.07,1.63,3-.52,4.2l-23,13.28A8.07,8.07,0,0,1,1419.37,813.45Z"/><path class="cls-4" d="M1455.23,834.15,1432,820.75c-1.87-1.08-1.63-3,.52-4.2l23-13.29a8.1,8.1,0,0,1,7.27-.3L1486,816.37c1.86,1.07,1.63,3-.53,4.2l-23,13.28A8.07,8.07,0,0,1,1455.23,834.15Z"/><path class="cls-4" d="M1491.08,854.85l-23.22-13.4c-1.86-1.08-1.63-3,.53-4.2l23-13.28a8.08,8.08,0,0,1,7.27-.31l23.22,13.41c1.87,1.07,1.63,3-.52,4.2l-23,13.28A8.07,8.07,0,0,1,1491.08,854.85Z"/><path class="cls-4" d="M1554.82,891.65l-50.66-29.24c-1.86-1.08-1.63-3,.53-4.2l23-13.29a8.13,8.13,0,0,1,7.28-.3l50.65,29.25c1.87,1.08,1.63,3-.52,4.2l-23,13.28A8.1,8.1,0,0,1,1554.82,891.65Z"/><path class="cls-4" d="M1624.63,851.35l-42.76-24.69c-1.86-1.07-1.63-2.95.52-4.2l23-13.28a8.11,8.11,0,0,1,7.27-.3l42.76,24.69c1.87,1.07,1.63,2.95-.52,4.2l-23,13.28A8.07,8.07,0,0,1,1624.63,851.35Z"/><path class="cls-4" d="M1267,685.19l-23.22-13.4c-1.86-1.08-1.63-3,.52-4.2l23-13.28a8.08,8.08,0,0,1,7.27-.31l23.22,13.41c1.86,1.08,1.63,3-.52,4.2l-23,13.28A8.07,8.07,0,0,1,1267,685.19Z"/><path class="cls-4" d="M1230.28,664l-23.22-13.41c-1.86-1.08-1.63-3,.52-4.2l23-13.28a8.07,8.07,0,0,1,7.27-.3l23.22,13.4c1.87,1.08,1.63,3-.52,4.2l-23,13.28A8.08,8.08,0,0,1,1230.28,664Z"/><path class="cls-4" d="M1193.53,642.76l-23.21-13.41c-1.87-1.07-1.63-3,.52-4.19l23-13.29a8.13,8.13,0,0,1,7.28-.3L1224.33,625c1.87,1.07,1.63,2.95-.52,4.2l-23,13.28A8.1,8.1,0,0,1,1193.53,642.76Z"/><path class="cls-4" d="M1156.79,621.54l-23.22-13.4c-1.87-1.08-1.63-3,.52-4.2l23-13.28a8.07,8.07,0,0,1,7.27-.3l23.22,13.4c1.86,1.08,1.63,3-.53,4.2l-23,13.28A8.07,8.07,0,0,1,1156.79,621.54Z"/><path class="cls-4" d="M1302.88,705.89l-23.21-13.4c-1.87-1.08-1.63-3,.52-4.2l23-13.28a8.06,8.06,0,0,1,7.28-.3l23.21,13.4c1.87,1.08,1.63,3-.52,4.2l-23,13.28A8.1,8.1,0,0,1,1302.88,705.89Z"/><path class="cls-4" d="M1338.74,726.59l-23.22-13.4c-1.86-1.08-1.63-3,.52-4.2l23-13.28a8.07,8.07,0,0,1,7.27-.3l23.22,13.4c1.86,1.08,1.63,3-.52,4.2l-23,13.28A8,8,0,0,1,1338.74,726.59Z"/><path class="cls-4" d="M1374.59,747.29l-23.21-13.4c-1.87-1.08-1.63-3,.52-4.2l23-13.28a8.1,8.1,0,0,1,7.28-.3l23.21,13.4c1.87,1.08,1.64,3-.52,4.2l-23,13.28A8.06,8.06,0,0,1,1374.59,747.29Z"/><path class="cls-4" d="M1410.45,768l-23.22-13.41c-1.86-1.07-1.63-3,.52-4.2l23-13.28a8.07,8.07,0,0,1,7.27-.3l23.22,13.4c1.86,1.08,1.63,3-.52,4.2l-23,13.29A8.11,8.11,0,0,1,1410.45,768Z"/><path class="cls-4" d="M1446.31,788.7l-23.22-13.41c-1.87-1.07-1.63-2.95.52-4.2l23-13.28a8.1,8.1,0,0,1,7.28-.3l23.22,13.41c1.86,1.07,1.63,3-.53,4.19l-23,13.29A8.11,8.11,0,0,1,1446.31,788.7Z"/><path class="cls-4" d="M1482.16,809.4,1458.94,796c-1.86-1.07-1.63-3,.53-4.2l23-13.28a8.07,8.07,0,0,1,7.27-.3L1513,791.62c1.87,1.07,1.63,3-.52,4.2l-23,13.28A8.1,8.1,0,0,1,1482.16,809.4Z"/><path class="cls-4" d="M1518,830.1l-23.22-13.4c-1.87-1.08-1.63-3,.52-4.2l23-13.29a8.1,8.1,0,0,1,7.27-.3l23.22,13.41c1.86,1.07,1.63,2.95-.53,4.2l-23,13.28A8.07,8.07,0,0,1,1518,830.1Z"/><path class="cls-4" d="M1553.87,850.8l-23.22-13.4c-1.86-1.08-1.63-3,.53-4.2l23-13.28a8.08,8.08,0,0,1,7.27-.31L1584.67,833c1.87,1.07,1.63,3-.52,4.2l-23,13.28A8.07,8.07,0,0,1,1553.87,850.8Z"/><path class="cls-4" d="M1589.73,871.5l-23.22-13.4c-1.86-1.08-1.63-3,.52-4.2l23-13.28a8.08,8.08,0,0,1,7.27-.31l23.22,13.41c1.86,1.08,1.63,3-.52,4.2l-23,13.28A8.07,8.07,0,0,1,1589.73,871.5Z"/><path class="cls-4" d="M1248.15,634l-23.22-13.41c-1.86-1.07-1.63-3,.52-4.2l23-13.28a8.07,8.07,0,0,1,7.27-.3L1279,616.21c1.86,1.07,1.63,2.95-.52,4.2l-23,13.28A8.07,8.07,0,0,1,1248.15,634Z"/><path class="cls-4" d="M1212.47,613.39,1189.25,600c-1.86-1.08-1.63-3,.53-4.2l23-13.29a8.11,8.11,0,0,1,7.27-.3l23.22,13.41c1.87,1.07,1.63,2.95-.52,4.2l-23,13.28A8.07,8.07,0,0,1,1212.47,613.39Z"/><path class="cls-4" d="M1176.79,592.79l-23.21-13.4c-1.87-1.08-1.63-3,.52-4.2l23-13.28a8.06,8.06,0,0,1,7.28-.3l23.21,13.4c1.87,1.08,1.63,3-.52,4.2l-23,13.28A8.1,8.1,0,0,1,1176.79,592.79Z"/><path class="cls-4" d="M1141.12,572.19l-23.22-13.4c-1.86-1.08-1.63-3,.52-4.2l23-13.28a8.07,8.07,0,0,1,7.27-.3l23.22,13.4c1.86,1.08,1.63,3-.53,4.2l-23,13.28A8,8,0,0,1,1141.12,572.19Z"/><path class="cls-4" d="M1177.8,551l-23.21-13.4c-1.87-1.08-1.63-3,.52-4.2l7.6-4.39a8.1,8.1,0,0,1,7.28-.3l23.21,13.4c1.87,1.08,1.63,3-.52,4.2l-7.6,4.39A8.1,8.1,0,0,1,1177.8,551Z"/><path class="cls-4" d="M1224.36,577.89l-23.22-13.4c-1.86-1.08-1.63-3,.53-4.2l7.6-4.39a8.07,8.07,0,0,1,7.27-.3l23.22,13.4c1.87,1.08,1.63,3-.52,4.2l-7.6,4.39A8.1,8.1,0,0,1,1224.36,577.89Z"/><path class="cls-4" d="M1259.89,598.41,1236.67,585c-1.86-1.07-1.63-3,.52-4.2l7.61-4.39a8.07,8.07,0,0,1,7.27-.3l23.22,13.4c1.86,1.08,1.63,3-.52,4.2l-7.61,4.39A8.08,8.08,0,0,1,1259.89,598.41Z"/><path class="cls-4" d="M1295.42,618.92l-23.22-13.41c-1.86-1.07-1.63-3,.52-4.2l7.61-4.39a8.11,8.11,0,0,1,7.27-.3L1310.82,610c1.86,1.07,1.63,3-.52,4.2l-7.61,4.39A8.07,8.07,0,0,1,1295.42,618.92Z"/><path class="cls-4" d="M1331,639.43,1307.73,626c-1.86-1.08-1.63-3,.52-4.2l7.61-4.39a8.08,8.08,0,0,1,7.27-.31l23.22,13.41c1.86,1.08,1.63,3-.52,4.2l-7.61,4.39A8.07,8.07,0,0,1,1331,639.43Z"/><path class="cls-4" d="M1529.3,754l-23.22-13.41c-1.87-1.07-1.63-2.95.52-4.2l7.61-4.39a8.11,8.11,0,0,1,7.27-.3l23.22,13.41c1.86,1.07,1.63,3-.53,4.2l-7.6,4.39A8.11,8.11,0,0,1,1529.3,754Z"/><path class="cls-4" d="M1564.83,774.46l-23.22-13.4c-1.87-1.08-1.63-3,.52-4.2l7.6-4.39a8.1,8.1,0,0,1,7.28-.31l23.22,13.41c1.86,1.08,1.63,3-.53,4.2l-7.6,4.39A8.07,8.07,0,0,1,1564.83,774.46Z"/><path class="cls-4" d="M1600.35,795l-23.21-13.4c-1.87-1.08-1.63-3,.52-4.2l7.6-4.39a8.1,8.1,0,0,1,7.28-.3l23.21,13.4c1.87,1.08,1.63,3-.52,4.2l-7.6,4.39A8.1,8.1,0,0,1,1600.35,795Z"/><path class="cls-4" d="M1635.88,815.48l-23.22-13.4c-1.86-1.08-1.63-3,.53-4.2l7.6-4.39a8.07,8.07,0,0,1,7.27-.3l23.22,13.4c1.87,1.08,1.63,3-.52,4.2l-7.6,4.39A8.06,8.06,0,0,1,1635.88,815.48Z"/><path class="cls-4" d="M1284,654.69l-23.21-13.4c-1.87-1.08-1.63-3,.52-4.2l23-13.29a8.13,8.13,0,0,1,7.28-.3l23.21,13.41c1.87,1.07,1.63,3-.52,4.2l-23,13.28A8.1,8.1,0,0,1,1284,654.69Z"/><path class="cls-4" d="M1319.86,675.39,1296.64,662c-1.86-1.08-1.63-3,.52-4.2l23-13.28a8.08,8.08,0,0,1,7.27-.31l23.22,13.41c1.86,1.08,1.63,2.95-.52,4.2l-23,13.28A8.07,8.07,0,0,1,1319.86,675.39Z"/><path class="cls-4" d="M1355.71,696.09l-23.21-13.4c-1.87-1.08-1.63-3,.52-4.2l23-13.28a8.1,8.1,0,0,1,7.28-.31l23.22,13.41c1.86,1.08,1.62,3-.53,4.2l-23,13.28A8.1,8.1,0,0,1,1355.71,696.09Z"/><path class="cls-4" d="M1391.57,716.79l-23.22-13.4c-1.86-1.08-1.63-3,.52-4.2l23-13.28a8,8,0,0,1,7.27-.3l23.22,13.4c1.86,1.08,1.63,3-.52,4.2l-23,13.28A8.07,8.07,0,0,1,1391.57,716.79Z"/><path class="cls-4" d="M1427.43,737.49l-23.22-13.4c-1.87-1.08-1.63-3,.52-4.2l23-13.28a8.1,8.1,0,0,1,7.28-.3l23.22,13.4c1.86,1.08,1.63,3-.53,4.2l-23,13.28A8,8,0,0,1,1427.43,737.49Z"/><path class="cls-4" d="M1463.28,758.2l-23.22-13.41c-1.86-1.08-1.63-3,.53-4.2l23-13.28a8.07,8.07,0,0,1,7.27-.3l23.22,13.4c1.87,1.08,1.63,3-.52,4.2l-23,13.28A8.08,8.08,0,0,1,1463.28,758.2Z"/><path class="cls-4" d="M1499.14,778.9l-23.22-13.41c-1.87-1.07-1.63-3,.52-4.2l23-13.28a8.07,8.07,0,0,1,7.27-.3l23.22,13.4c1.86,1.08,1.63,3-.53,4.2l-23,13.29A8.11,8.11,0,0,1,1499.14,778.9Z"/><path class="cls-4" d="M1535,799.6l-23.22-13.41c-1.86-1.07-1.63-3,.53-4.2l23-13.28a8.07,8.07,0,0,1,7.27-.3l23.22,13.41c1.87,1.07,1.63,2.95-.52,4.19l-23,13.29A8.1,8.1,0,0,1,1535,799.6Z"/><path class="cls-4" d="M1570.85,820.3l-23.22-13.41c-1.87-1.07-1.63-2.95.52-4.19l23-13.29a8.11,8.11,0,0,1,7.27-.3l23.22,13.41c1.86,1.07,1.63,3-.53,4.2l-23,13.28A8.07,8.07,0,0,1,1570.85,820.3Z"/><path class="cls-4" d="M1079,657.25l-68.38-39.48c-1.86-1.08-1.63-3,.53-4.2l23-13.28a8.08,8.08,0,0,1,7.27-.31l68.38,39.48c1.87,1.08,1.63,3-.52,4.2l-23,13.28A8.1,8.1,0,0,1,1079,657.25Z"/><path class="cls-4" d="M1519.51,911.56l-68.38-39.47c-1.87-1.08-1.63-3,.52-4.2l23-13.29a8.13,8.13,0,0,1,7.28-.3l68.38,39.48c1.86,1.08,1.63,3-.53,4.2l-23,13.28A8,8,0,0,1,1519.51,911.56Z"/><path class="cls-4" d="M1376.11,874.5l-23.21-13.4c-1.87-1.08-1.63-3,.52-4.2l27.4-15.82a8.06,8.06,0,0,1,7.28-.3l23.21,13.4c1.87,1.08,1.63,3-.52,4.2l-27.4,15.82A8.06,8.06,0,0,1,1376.11,874.5Z"/><path class="cls-4" d="M1115.73,724.17l-37.13-21.44c-1.87-1.07-1.63-3,.52-4.19l27.41-15.83a8.07,8.07,0,0,1,7.27-.3l37.13,21.44c1.87,1.08,1.63,3-.52,4.2L1123,723.87A8.07,8.07,0,0,1,1115.73,724.17Z"/><path class="cls-4" d="M1341.57,854.56l-37.13-21.44c-1.87-1.08-1.64-3,.52-4.2l27.4-15.82a8.07,8.07,0,0,1,7.27-.3l37.14,21.43c1.86,1.08,1.63,3-.52,4.2l-27.41,15.83A8.07,8.07,0,0,1,1341.57,854.56Z"/><path class="cls-4" d="M1167.46,754l-37.13-21.44c-1.86-1.08-1.63-3,.52-4.2l27.41-15.82a8.07,8.07,0,0,1,7.27-.3l37.13,21.44c1.87,1.07,1.63,2.95-.52,4.2l-27.4,15.82A8.1,8.1,0,0,1,1167.46,754Z"/><path class="cls-4" d="M1165.78,712.42l161.44,93.21c2,1.16,2,3,0,4.19L1299.28,826a8,8,0,0,1-7.26,0l-161.44-93.2Z"/><path class="cls-4" d="M1476.32,912,1502.19,927c1.52.88,1.33,2.42-.43,3.44l-11.21,6.47a6.63,6.63,0,0,1-6,.25l-25.87-14.93c-1.52-.88-1.33-2.42.43-3.44l11.21-6.48A6.66,6.66,0,0,1,1476.32,912Z"/><path class="cls-4" d="M1440.17,891.16,1466,906.1c1.53.88,1.34,2.42-.42,3.44L1454.39,916a6.63,6.63,0,0,1-6,.25l-25.86-14.93c-1.53-.89-1.34-2.43.43-3.45l11.21-6.47A6.63,6.63,0,0,1,1440.17,891.16Z"/><path class="cls-4" d="M1404.32,870.46l25.86,14.93c1.53.89,1.34,2.43-.43,3.45l-11.21,6.47a6.63,6.63,0,0,1-6,.25l-25.86-14.93c-1.53-.89-1.34-2.43.42-3.45l11.21-6.47A6.65,6.65,0,0,1,1404.32,870.46Z"/><path class="cls-4" d="M1460,879.73l25.86,14.94c1.53.88,1.34,2.42-.42,3.44l-11.21,6.47a6.65,6.65,0,0,1-6,.25l-25.86-14.94c-1.53-.88-1.33-2.42.43-3.44L1454,880A6.63,6.63,0,0,1,1460,879.73Z"/><path class="cls-4" d="M997,812.76l94.1-54.32a21.34,21.34,0,0,1,21.41,0l161.74,94.23a8.78,8.78,0,0,1-.07,15.22l-94.3,53.68a22.12,22.12,0,0,1-22.13-.15L997,826.9A8.18,8.18,0,0,1,997,812.76Z"/><path class="cls-4" d="M1608.2,730.93,1270.94,536.37l-5.73,3.74a7.38,7.38,0,0,0,.35,12.56l317.79,183.49a16.55,16.55,0,0,0,17.14-.35Z"/><g class="cls-8"><path class="cls-9" d="M968.18,564.61,620.27,766.8c-25.8,15-67.77,15-93.74,0L176.35,564.62c-13.07-7.55-19.6-17.45-19.57-27.34L156.7,564c0,9.89,6.5,19.8,19.57,27.34L526.46,793.5c26,15,67.94,15,93.73,0L968.11,591.32c12.81-7.45,19.23-17.2,19.26-27l.07-26.7C987.42,547.42,981,557.17,968.18,564.61Z"/><path class="cls-10" d="M967.88,510.32c26,15,26.1,39.3.3,54.29L620.27,766.8c-25.8,15-67.77,15-93.74,0L176.35,564.62c-26-15-26.11-39.31-.31-54.3L524,308.14c25.8-15,67.77-15,93.74,0Z"/></g><polygon class="cls-11" points="239.99 400.58 244.59 397.93 244.59 393.25 239.99 395.9 239.99 400.58"/><polygon class="cls-4" points="392.32 563.85 680.45 731.83 812.61 655.02 518.54 491.14 392.32 563.85"/><polygon id="Cube_face_-_left" data-name="Cube face - left" class="cls-6" points="386.95 560.86 249.18 481.32 249.18 399.2 386.95 478.74 386.95 560.86"/><polygon id="Cube_face_-_top" data-name="Cube face - top" class="cls-6" points="386.95 478.74 249.18 399.2 509.36 248.98 647.13 328.52 386.95 478.74"/><polygon class="cls-12" points="386.95 478.74 386.95 560.86 647.13 410.65 647.13 328.52 386.95 478.74"/><polygon class="cls-6" points="315.19 369.22 244.59 393.25 244.59 397.93 385.72 479.41 385.72 475 315.19 369.22"/><polygon class="cls-4" points="302.24 396.95 303.09 423.6 286.09 414.08 286.09 387.63 302.24 396.95"/><g id="Axonometric_Cube" data-name="Axonometric Cube"><polygon id="Cube_face_-_left-2" data-name="Cube face - left" class="cls-13" points="304.18 431.15 304.66 430.87 304.66 427.24 304.18 427.51 304.18 431.15"/><polygon id="Cube_face_-_right" data-name="Cube face - right" class="cls-12" points="283.08 418.97 304.18 431.15 304.18 427.51 283.08 415.33 283.08 418.97"/><polygon id="Cube_face_-_top-2" data-name="Cube face - top" class="cls-12" points="304.18 427.51 304.66 427.24 283.56 415.06 283.08 415.33 304.18 427.51"/></g><polygon class="cls-13" points="284.38 415.11 286.38 413.95 286.38 386.58 284.04 386.27 284.38 415.11"/><polygon class="cls-12" points="302.33 425.48 302.18 423.07 286.38 413.95 284.38 415.11 302.33 425.48"/><polygon class="cls-12" points="302.53 396.14 303 395.86 284.01 384.9 283.53 385.18 302.53 396.14"/><polygon class="cls-13" points="286.18 400.23 286.73 399.91 286.73 388.31 286.18 388.63 286.18 400.23"/><polygon class="cls-12" points="301.78 409.24 302.03 408.75 286.73 399.91 286.18 400.23 301.78 409.24"/><polygon class="cls-12" points="301.7 396.63 302.25 396.32 285.9 386.88 285.35 387.2 301.7 396.63"/><path class="cls-12" d="M302.06,410.35l-16.72-9.65V387.2l16.71,9.64Zm-15.88-10.12L302,409.35v-11.6l-15.79-9.12v11.6Z"/><polygon class="cls-13" points="286.93 413.61 287.47 413.29 287.47 401.3 286.92 401.62 286.93 413.61"/><polygon class="cls-12" points="302.76 422.75 302.91 422.2 287.47 413.29 286.93 413.61 302.76 422.75"/><polygon class="cls-12" points="303.08 410.46 302.99 409.31 286.64 399.87 286.1 400.19 303.08 410.46"/><path class="cls-12" d="M303.18,424l-17.09-9.87V400.19l17.09,9.86Zm-16.25-10.34,15.43,8.91v-12l-15.44-8.91v12Z"/><path class="cls-12" d="M302.52,426.56l-19-11V385.18l19,11ZM284.87,415l17.06,9.85V397.18l-17.06-9.85V415Z"/><polygon class="cls-13" points="303.43 427.08 303.91 426.81 303.92 396.39 303.44 396.67 303.43 427.08"/><polygon class="cls-12" points="303.44 396.67 303.92 396.39 302.75 395.71 302.27 395.99 303.44 396.67"/><path class="cls-12" d="M303.43,427.09l-1.16-.68V396l1.17.68Z"/><polygon class="cls-4" points="349.67 424.33 350.52 450.98 333.52 441.47 333.52 415.01 349.67 424.33"/><g id="Axonometric_Cube-2" data-name="Axonometric Cube"><polygon id="Cube_face_-_left-3" data-name="Cube face - left" class="cls-13" points="351.61 458.53 352.09 458.26 352.09 454.62 351.61 454.9 351.61 458.53"/><polygon id="Cube_face_-_right-2" data-name="Cube face - right" class="cls-12" points="330.51 446.35 351.61 458.53 351.61 454.9 330.51 442.72 330.51 446.35"/><polygon id="Cube_face_-_top-3" data-name="Cube face - top" class="cls-12" points="351.61 454.9 352.09 454.62 330.99 442.44 330.51 442.72 351.61 454.9"/></g><polygon class="cls-13" points="331.81 442.5 333.81 441.34 333.81 413.96 331.47 413.66 331.81 442.5"/><polygon class="cls-12" points="349.77 452.86 349.61 450.46 333.81 441.34 331.81 442.5 349.77 452.86"/><polygon class="cls-12" points="349.96 423.53 350.44 423.25 331.44 412.28 330.96 412.56 349.96 423.53"/><polygon class="cls-13" points="333.61 427.62 334.16 427.3 334.16 415.69 333.61 416.01 333.61 427.62"/><polygon class="cls-12" points="349.21 436.63 349.46 436.13 334.16 427.3 333.61 427.62 349.21 436.63"/><polygon class="cls-12" points="349.13 424.02 349.68 423.7 333.33 414.26 332.78 414.58 349.13 424.02"/><path class="cls-12" d="M349.49,437.74l-16.71-9.65V414.58l16.71,9.65Zm-15.88-10.12,15.8,9.11v-11.6L333.61,416v11.61Z"/><polygon class="cls-13" points="334.36 441 334.9 440.68 334.9 428.68 334.35 429 334.36 441"/><polygon class="cls-12" points="350.19 450.14 350.34 449.59 334.9 440.68 334.36 441 350.19 450.14"/><polygon class="cls-12" points="350.51 437.85 350.43 436.69 334.07 427.25 333.53 427.57 350.51 437.85"/><path class="cls-12" d="M350.61,451.33l-17.09-9.86v-13.9l17.09,9.87ZM334.36,441l15.43,8.91v-12L334.35,429v12Z"/><path class="cls-12" d="M350,453.94l-19-11V412.56l19,11ZM332.3,442.37l17.06,9.85V424.56l-17.06-9.85v27.66Z"/><polygon class="cls-13" points="350.86 454.47 351.34 454.19 351.35 423.77 350.87 424.05 350.86 454.47"/><polygon class="cls-12" points="350.87 424.05 351.35 423.77 350.18 423.1 349.7 423.38 350.87 424.05"/><path class="cls-12" d="M350.86,454.47l-1.16-.67V423.38l1.17.67Z"/><polygon class="cls-4" points="367.38 491.06 368.23 517.71 333.54 497.98 333.54 471.52 367.38 491.06"/><g id="Axonometric_Cube-3" data-name="Axonometric Cube"><polygon id="Cube_face_-_left-4" data-name="Cube face - left" class="cls-13" points="369.32 525.26 369.8 524.98 369.8 521.35 369.32 521.62 369.32 525.26"/><polygon id="Cube_face_-_right-3" data-name="Cube face - right" class="cls-12" points="330.53 502.86 369.32 525.26 369.32 521.62 330.53 499.23 330.53 502.86"/><polygon id="Cube_face_-_top-4" data-name="Cube face - top" class="cls-12" points="369.32 521.62 369.8 521.35 331.01 498.95 330.53 499.23 369.32 521.62"/></g><polygon class="cls-13" points="331.83 499.01 333.83 497.85 333.83 470.48 331.48 470.17 331.83 499.01"/><polygon class="cls-12" points="349.78 509.37 349.63 506.97 333.83 497.85 331.83 499.01 349.78 509.37"/><polygon class="cls-13" points="349.97 510.46 350.45 510.18 350.45 479.76 349.98 480.04 349.97 510.46"/><polygon class="cls-12" points="349.98 480.04 350.45 479.76 331.46 468.8 330.98 469.07 349.98 480.04"/><polygon class="cls-13" points="333.63 484.13 334.18 483.81 334.17 472.2 333.62 472.52 333.63 484.13"/><polygon class="cls-12" points="349.23 493.14 349.48 492.64 334.18 483.81 333.63 484.13 349.23 493.14"/><polygon class="cls-12" points="349.15 480.53 349.69 480.21 333.35 470.77 332.8 471.09 349.15 480.53"/><path class="cls-12" d="M349.51,494.25l-16.72-9.65V471.09l16.71,9.65Zm-15.88-10.12,15.79,9.12V481.64l-15.8-9.12v11.61Z"/><polygon class="cls-13" points="334.37 497.51 334.92 497.19 334.92 485.19 334.37 485.51 334.37 497.51"/><polygon class="cls-12" points="350.21 506.65 350.36 506.1 334.92 497.19 334.37 497.51 350.21 506.65"/><polygon class="cls-12" points="350.53 494.36 350.44 493.2 334.09 483.76 333.54 484.08 350.53 494.36"/><path class="cls-12" d="M350.63,507.85,333.54,498v-13.9l17.1,9.87Zm-16.26-10.34,15.44,8.91v-12l-15.43-8.91v12Z"/><path class="cls-12" d="M350,510.46l-19-11V469.07l19,11Zm-17.65-11.58,17.06,9.85V481.07l-17.05-9.85v27.66Z"/><polygon class="cls-13" points="349.96 509.16 351.69 508.16 351.69 480.79 350.03 480.7 349.96 509.16"/><path class="cls-12" d="M367.73,519.73l.84-1.82-16.88-9.75-1.75,1a.18.18,0,0,0,0,.3Z"/><polygon class="cls-13" points="351.5 494.44 352.05 494.13 352.04 482.52 351.49 482.84 351.5 494.44"/><polygon class="cls-12" points="367.1 503.45 367.35 502.96 352.05 494.13 351.5 494.44 367.1 503.45"/><polygon class="cls-12" points="367.02 490.85 367.56 490.53 351.22 481.09 350.67 481.41 367.02 490.85"/><path class="cls-12" d="M367.38,504.57l-16.72-9.65V481.41l16.71,9.65ZM351.5,494.45l15.79,9.11V492l-15.8-9.12v11.61Z"/><polygon class="cls-13" points="352.24 507.82 352.79 507.51 352.79 495.51 352.24 495.83 352.24 507.82"/><polygon class="cls-12" points="368.08 516.97 368.23 516.42 352.79 507.51 352.24 507.82 368.08 516.97"/><polygon class="cls-12" points="368.4 504.68 368.31 503.52 351.96 494.08 351.41 494.4 368.4 504.68"/><path class="cls-12" d="M368.5,518.16l-17.09-9.86V494.4l17.1,9.87Zm-16.26-10.34,15.44,8.92v-12l-15.43-8.91v12Z"/><polygon class="cls-13" points="368.57 521.2 369.05 520.92 369.05 490.5 368.57 490.78 368.57 521.2"/><polygon class="cls-12" points="368.57 490.78 369.05 490.5 350.2 479.61 349.72 479.89 368.57 490.78"/><path class="cls-12" d="M368.57,521.2l-18.86-10.89V479.89l18.86,10.89Zm-18.39-12L367.24,519V491.38l-17.06-9.84v27.65Z"/><polygon class="cls-4" points="302.23 453.44 303.07 480.09 268.39 460.36 268.39 433.91 302.23 453.44"/><g id="Axonometric_Cube-4" data-name="Axonometric Cube"><polygon id="Cube_face_-_left-5" data-name="Cube face - left" class="cls-13" points="304.16 487.64 304.64 487.37 304.64 483.73 304.16 484.01 304.16 487.64"/><polygon id="Cube_face_-_right-4" data-name="Cube face - right" class="cls-12" points="265.37 465.25 304.16 487.64 304.16 484.01 265.37 461.61 265.37 465.25"/><polygon id="Cube_face_-_top-5" data-name="Cube face - top" class="cls-12" points="304.16 484.01 304.64 483.73 265.85 461.34 265.37 461.61 304.16 484.01"/></g><polygon class="cls-13" points="266.67 461.39 268.67 460.23 268.67 432.86 266.33 432.56 266.67 461.39"/><polygon class="cls-12" points="284.63 471.76 284.47 469.36 268.67 460.23 266.67 461.39 284.63 471.76"/><polygon class="cls-13" points="284.82 472.84 285.3 472.56 285.3 442.14 284.82 442.42 284.82 472.84"/><polygon class="cls-12" points="284.82 442.42 285.3 442.14 266.31 431.18 265.83 431.46 284.82 442.42"/><polygon class="cls-13" points="268.47 446.51 269.02 446.19 269.02 434.59 268.47 434.91 268.47 446.51"/><polygon class="cls-12" points="284.08 455.52 284.32 455.03 269.02 446.19 268.47 446.51 284.08 455.52"/><polygon class="cls-12" points="283.99 442.92 284.54 442.6 268.19 433.16 267.64 433.48 283.99 442.92"/><path class="cls-12" d="M284.35,456.63,267.64,447v-13.5l16.71,9.65Zm-15.88-10.12,15.8,9.12V444l-15.8-9.12v11.6Z"/><polygon class="cls-13" points="269.22 459.89 269.77 459.57 269.77 447.58 269.22 447.9 269.22 459.89"/><polygon class="cls-12" points="285.05 469.03 285.2 468.48 269.77 459.57 269.22 459.89 285.05 469.03"/><polygon class="cls-12" points="285.37 456.74 285.29 455.59 268.94 446.15 268.39 446.47 285.37 456.74"/><path class="cls-12" d="M285.48,470.23l-17.09-9.87V446.47l17.09,9.86Zm-16.26-10.34,15.43,8.91v-12l-15.43-8.91v12Z"/><path class="cls-12" d="M284.82,472.84l-19-11V431.46l19,11Zm-17.66-11.57,17.06,9.85V443.46l-17.06-9.85v27.66Z"/><polygon class="cls-13" points="284.8 471.55 286.53 470.55 286.53 443.17 284.88 443.09 284.8 471.55"/><path class="cls-12" d="M302.57,482.12l.84-1.83-16.88-9.75-1.74,1a.18.18,0,0,0,0,.3Z"/><polygon class="cls-13" points="286.34 456.83 286.89 456.51 286.89 444.9 286.34 445.23 286.34 456.83"/><polygon class="cls-12" points="301.95 465.84 302.19 465.34 286.89 456.51 286.34 456.83 301.95 465.84"/><polygon class="cls-12" points="301.86 453.23 302.41 452.91 286.06 443.48 285.51 443.79 301.86 453.23"/><path class="cls-12" d="M302.22,467l-16.71-9.65V443.79l16.71,9.65Zm-15.88-10.12,15.8,9.12V454.34l-15.8-9.12v11.61Z"/><polygon class="cls-13" points="287.09 470.21 287.64 469.89 287.64 457.9 287.09 458.21 287.09 470.21"/><polygon class="cls-12" points="302.92 479.35 303.07 478.8 287.64 469.89 287.09 470.21 302.92 479.35"/><polygon class="cls-12" points="303.25 467.06 303.16 465.9 286.81 456.46 286.26 456.78 303.25 467.06"/><path class="cls-12" d="M303.35,480.55l-17.09-9.87v-13.9l17.09,9.87Zm-16.26-10.34,15.43,8.91v-12l-15.43-8.91v12Z"/><polygon class="cls-13" points="303.42 483.58 303.9 483.3 303.9 452.88 303.42 453.16 303.42 483.58"/><polygon class="cls-12" points="303.42 453.16 303.9 452.88 285.04 442 284.56 442.27 303.42 453.16"/><path class="cls-12" d="M303.42,483.58l-18.86-10.89V442.27l18.86,10.89Zm-18.4-12,17.06,9.85V453.77L285,443.92v27.66Z"/><polygon class="cls-4" points="555.36 407.76 554.51 434.41 589.2 414.68 589.2 388.22 555.36 407.76"/><g id="Axonometric_Cube-5" data-name="Axonometric Cube"><polygon id="Cube_face_-_left-6" data-name="Cube face - left" class="cls-14" points="553.42 441.96 552.94 441.68 552.94 438.05 553.42 438.33 553.42 441.96"/><polygon id="Cube_face_-_right-5" data-name="Cube face - right" class="cls-12" points="592.21 419.57 553.42 441.96 553.42 438.33 592.21 415.93 592.21 419.57"/><polygon id="Cube_face_-_top-6" data-name="Cube face - top" class="cls-15" points="553.42 438.33 552.94 438.05 591.73 415.65 592.21 415.93 553.42 438.33"/></g><polygon class="cls-14" points="590.91 415.71 588.91 414.55 588.91 387.18 591.25 386.87 590.91 415.71"/><polygon class="cls-15" points="572.95 426.08 573.11 423.67 588.91 414.55 590.91 415.71 572.95 426.08"/><polygon class="cls-14" points="572.76 427.16 572.29 426.88 572.28 396.46 572.76 396.74 572.76 427.16"/><polygon class="cls-15" points="572.76 396.74 572.28 396.46 591.28 385.5 591.75 385.77 572.76 396.74"/><polygon class="cls-14" points="589.11 400.83 588.56 400.51 588.56 388.91 589.11 389.23 589.11 400.83"/><polygon class="cls-15" points="573.5 409.84 573.26 409.35 588.56 400.51 589.11 400.83 573.5 409.84"/><polygon class="cls-15" points="573.59 397.23 573.04 396.92 589.39 387.48 589.94 387.8 573.59 397.23"/><path class="cls-12" d="M573.23,397.44l16.71-9.65V401.3L573.23,411Zm15.88,3.39v-11.6l-15.79,9.12V410l15.8-9.12Z"/><polygon class="cls-14" points="588.36 414.21 587.82 413.89 587.82 401.9 588.37 402.22 588.36 414.21"/><polygon class="cls-15" points="572.53 423.35 572.38 422.8 587.82 413.89 588.36 414.21 572.53 423.35"/><polygon class="cls-15" points="572.21 411.06 572.29 409.9 588.64 400.47 589.19 400.79 572.21 411.06"/><path class="cls-12" d="M572.1,410.65l17.09-9.87v13.9l-17.09,9.87Zm16.26,3.56v-12l-15.44,8.91v12l15.43-8.91Z"/><path class="cls-12" d="M572.76,396.74l19-11v30.42l-19,11Zm17.66,18.85V387.93l-17.06,9.85v27.65l17.06-9.84Z"/><polygon class="cls-14" points="572.78 425.86 571.05 424.86 571.05 397.49 572.7 397.4 572.78 425.86"/><path class="cls-15" d="M555,436.44l-.84-1.83,16.88-9.75,1.74,1a.17.17,0,0,1,0,.3Z"/><polygon class="cls-14" points="571.24 411.15 570.69 410.83 570.69 399.22 571.24 399.54 571.24 411.15"/><polygon class="cls-15" points="555.63 420.16 555.39 419.66 570.69 410.83 571.24 411.15 555.63 420.16"/><polygon class="cls-15" points="555.72 407.55 555.17 407.23 571.52 397.79 572.07 398.11 555.72 407.55"/><path class="cls-12" d="M555.36,407.76l16.71-9.65v13.51l-16.71,9.65Zm15.88,3.39V399.54l-15.79,9.12v11.61l15.8-9.12Z"/><polygon class="cls-14" points="570.49 424.53 569.94 424.21 569.95 412.21 570.5 412.53 570.49 424.53"/><polygon class="cls-15" points="554.66 433.67 554.51 433.12 569.94 424.21 570.49 424.53 554.66 433.67"/><polygon class="cls-15" points="554.34 421.38 554.42 420.22 570.77 410.78 571.32 411.1 554.34 421.38"/><path class="cls-12" d="M554.23,421l17.09-9.87V425l-17.1,9.87Zm16.26,3.56v-12l-15.44,8.91v12l15.43-8.91Z"/><polygon class="cls-14" points="554.16 437.9 553.69 437.62 553.68 407.2 554.16 407.48 554.16 437.9"/><polygon class="cls-15" points="554.16 407.48 553.68 407.2 572.54 396.31 573.02 396.59 554.16 407.48"/><path class="cls-12" d="M554.16,407.48,573,396.59V427L554.16,437.9Zm18.4,18.42V398.24l-17.06,9.85v27.66l17.06-9.85Z"/><polygon id="Cube_face_-_left-7" data-name="Cube face - left" class="cls-6" points="418.04 578.84 381.99 558.03 381.99 481.35 418.04 502.16 418.04 578.84"/><g class="cls-8"><polygon class="cls-4" points="236.42 393.77 507.47 236.56 582.93 210.88 311.88 368.08 236.42 393.77"/><polygon class="cls-15" points="386.95 480.68 658 323.47 657.99 328.21 386.94 485.42 386.95 480.68"/><polygon class="cls-4" points="311.88 368.08 582.93 210.88 658 323.47 527.47 399.4 454.47 450.93 386.95 480.68 311.88 368.08"/><polygon class="cls-15" points="311.88 368.08 236.42 393.77 236.43 398.52 239.99 400.58 239.99 395.9 310.6 371.87 381.12 477.65 381.12 482.06 386.94 485.42 386.95 480.68 311.88 368.08"/></g><path class="cls-16" d="M458.68,350.29s-21-23.32-21.19-23.57-31.94-14.78-31.94-14.78L391.6,320a82.72,82.72,0,0,0-15.43-5.21l-71.49,41.27,29.14-.74,62.29,30.42,6.6-1.77,31,15.26,6.39-12.41,23,11.43Z"/><polygon id="Cube_face_-_right-6" data-name="Cube face - right" class="cls-12" points="564.72 323.61 433.74 399.23 433.74 364.76 564.72 289.14 564.72 323.61"/><polygon class="cls-17" points="334.59 302.88 328.52 305.1 328.95 309.04 336.61 304.62 334.59 302.88"/><polygon class="cls-6" points="432.86 363.91 432.86 362.1 382.57 286.68 332.23 303.81 332.23 307.14 335.5 308.33 335.5 342.51 384.64 325.8 433.74 399.23 433.74 364.76 432.86 363.91"/><g class="cls-8"><polygon class="cls-4" points="326.41 304.18 465.14 223.57 518.94 205.26 380.21 285.87 326.41 304.18"/><polygon class="cls-15" points="433.74 366.15 572.47 285.54 572.46 288.92 433.73 369.53 433.74 366.15"/><polygon class="cls-4" points="380.21 285.87 518.94 205.26 572.47 285.54 433.74 366.15 380.21 285.87"/><polygon class="cls-15" points="380.21 285.87 326.41 304.18 326.41 307.57 328.95 309.04 328.95 305.7 379.3 288.57 429.58 363.99 429.58 367.13 433.73 369.53 433.74 366.15 380.21 285.87"/></g><g id="Axonometric_Cube-6" data-name="Axonometric Cube"><polygon id="Cube_face_-_left-8" data-name="Cube face - left" class="cls-12" points="463.12 398.25 561.36 341.54 561.36 304.27 463.12 360.98 463.12 398.25"/><polygon id="Cube_face_-_right-7" data-name="Cube face - right" class="cls-6" points="455.31 386.81 463.12 398.25 463.12 360.98 455.31 355.82 455.31 386.81"/></g><polygon class="cls-15" points="562.27 299.09 568.34 301.32 567.91 305.25 560.25 300.84 562.27 299.09"/><polygon class="cls-12" points="514.29 282.89 564.63 300.03 564.63 303.36 464 361.46 464 358.32 514.29 282.89"/><g class="cls-8"><polygon class="cls-4" points="570.45 300.4 559.42 293.52 457.69 247.53 516.65 282.09 570.45 300.4"/><polygon class="cls-15" points="463.12 362.37 452.09 355.48 452.1 358.86 463.13 365.75 463.12 362.37"/><polygon class="cls-4" points="516.65 282.09 457.69 247.53 452.09 355.48 463.12 362.37 516.65 282.09"/><polygon class="cls-15" points="516.65 282.09 570.45 300.4 570.45 303.79 567.91 305.25 567.91 301.92 517.56 284.79 467.28 360.21 467.28 363.35 463.13 365.75 463.12 362.37 516.65 282.09"/></g><polygon class="cls-6" points="513.12 462.32 502.75 494.23 533.77 512.14 535.6 452.71 513.12 462.32"/><polygon class="cls-12" points="429.84 512.6 429.84 568.58 530.71 510.34 530.71 454.36 429.84 512.6"/><path class="cls-4" d="M526.62,468.38l-19.54,11.28v-9.47l19.54-11.28Zm-23.79,4.26L483.3,483.92v9.47l19.53-11.28Zm-23.78,13.74-19.54,11.28v9.46l19.54-11.28Zm-23.79,13.73-19.53,11.28v9.47l19.53-11.28Z"/><polygon class="cls-15" points="478.31 534.48 479.05 534.9 479.05 526.41 478.31 526.84 478.31 534.48"/><polygon class="cls-15" points="478.31 521.39 479.05 521.81 479.05 513.32 478.31 513.75 478.31 521.39"/><polygon class="cls-15" points="454.53 522.03 455.26 522.45 455.26 513.96 454.53 514.39 454.53 522.03"/><polygon class="cls-15" points="454.53 535.12 455.26 535.54 455.26 527.05 454.53 527.48 454.53 535.12"/><polygon class="cls-15" points="478.31 508.3 479.05 508.72 479.05 500.23 478.31 500.65 478.31 508.3"/><polygon class="cls-15" points="454.53 548.21 455.26 548.63 455.26 540.14 454.53 540.57 454.53 548.21"/><polygon class="cls-15" points="502.1 494.56 502.83 494.99 502.83 486.5 502.1 486.92 502.1 494.56"/><polygon class="cls-15" points="525.88 493.92 526.62 494.35 526.62 485.86 525.88 486.28 525.88 493.92"/><polygon class="cls-15" points="525.88 507.01 526.62 507.44 526.62 498.95 525.88 499.37 525.88 507.01"/><polygon class="cls-15" points="502.1 507.65 502.83 508.08 502.83 499.59 502.1 500.01 502.1 507.65"/><polygon class="cls-15" points="525.88 473.19 525.88 480.83 526.62 481.26 526.62 472.76 525.88 473.19"/><polygon class="cls-15" points="502.1 520.75 502.83 521.17 502.83 512.68 502.1 513.1 502.1 520.75"/><g class="cls-18"><polygon class="cls-15" points="459.51 519.15 459.51 520 479.05 508.72 478.31 508.3 459.51 519.15"/><polygon class="cls-15" points="435.73 532.88 435.73 533.73 455.26 522.45 454.53 522.03 435.73 532.88"/><polygon class="cls-15" points="483.3 505.42 483.3 506.27 502.83 494.99 502.1 494.56 483.3 505.42"/><polygon class="cls-15" points="525.88 480.83 507.08 491.69 507.08 492.54 526.62 481.26 525.88 480.83"/><polygon class="cls-15" points="459.51 532.24 459.51 533.09 479.05 521.81 478.31 521.39 459.51 532.24"/><polygon class="cls-15" points="435.73 545.97 435.73 546.82 455.26 535.54 454.53 535.12 435.73 545.97"/><polygon class="cls-15" points="483.3 518.51 483.3 519.36 502.83 508.08 502.1 507.65 483.3 518.51"/><polygon class="cls-15" points="507.08 504.78 507.08 505.63 526.62 494.35 525.88 493.92 507.08 504.78"/><polygon class="cls-15" points="459.51 545.33 459.51 546.18 479.05 534.9 478.31 534.48 459.51 545.33"/><polygon class="cls-15" points="435.73 559.06 435.73 559.91 455.26 548.63 454.53 548.21 435.73 559.06"/><polygon class="cls-15" points="483.3 531.6 483.3 532.45 502.83 521.17 502.1 520.75 483.3 531.6"/><polygon class="cls-15" points="507.08 517.87 507.08 518.72 526.62 507.44 525.88 507.01 507.08 517.87"/></g><polygon id="Cube_face_-_right-8" data-name="Cube face - right" class="cls-12" points="544.69 505.72 533.75 512.04 533.85 452.94 430.6 512.72 430.57 571.61 418.04 578.84 418.04 502.16 544.69 429.04 544.69 505.72"/><polygon class="cls-4" points="477.89 352.18 477.04 378.83 494.04 369.32 494.04 342.86 477.89 352.18"/><g id="Axonometric_Cube-7" data-name="Axonometric Cube"><polygon id="Cube_face_-_left-9" data-name="Cube face - left" class="cls-14" points="475.95 386.38 475.47 386.11 475.47 382.47 475.95 382.75 475.95 386.38"/><polygon id="Cube_face_-_right-9" data-name="Cube face - right" class="cls-12" points="497.05 374.2 475.95 386.38 475.95 382.75 497.05 370.57 497.05 374.2"/><polygon id="Cube_face_-_top-7" data-name="Cube face - top" class="cls-15" points="475.95 382.75 475.47 382.47 496.57 370.29 497.05 370.57 475.95 382.75"/></g><polygon class="cls-14" points="495.75 370.35 493.75 369.19 493.75 341.81 496.09 341.51 495.75 370.35"/><polygon class="cls-15" points="477.79 380.71 477.95 378.31 493.75 369.19 495.75 370.35 477.79 380.71"/><polygon class="cls-15" points="477.6 351.38 477.12 351.1 496.12 340.13 496.59 340.41 477.6 351.38"/><polygon class="cls-14" points="493.95 355.47 493.4 355.15 493.4 343.54 493.95 343.86 493.95 355.47"/><polygon class="cls-15" points="478.34 364.48 478.1 363.98 493.4 355.15 493.95 355.47 478.34 364.48"/><polygon class="cls-15" points="478.43 351.87 477.88 351.55 494.23 342.11 494.78 342.43 478.43 351.87"/><path class="cls-12" d="M478.07,352.08l16.71-9.65v13.51l-16.71,9.65ZM494,355.47V343.86L478.16,353v11.61l15.8-9.12Z"/><polygon class="cls-14" points="493.2 368.85 492.65 368.53 492.66 356.53 493.2 356.85 493.2 368.85"/><polygon class="cls-15" points="477.37 377.99 477.22 377.44 492.65 368.53 493.2 368.85 477.37 377.99"/><polygon class="cls-15" points="477.05 365.7 477.13 364.54 493.48 355.1 494.03 355.42 477.05 365.7"/><path class="cls-12" d="M476.94,365.29,494,355.42v13.9l-17.1,9.86Zm16.26,3.56v-12l-15.43,8.91v12l15.43-8.91Z"/><path class="cls-12" d="M477.6,351.38l19-11v30.42l-19,11Zm17.66,18.84V342.56l-17.06,9.85v27.66l17.06-9.85Z"/><polygon class="cls-14" points="476.69 382.32 476.22 382.04 476.21 351.62 476.69 351.9 476.69 382.32"/><polygon class="cls-15" points="476.69 351.9 476.21 351.62 477.38 350.95 477.86 351.23 476.69 351.9"/><path class="cls-12" d="M476.69,351.9l1.17-.67v30.42l-1.17.67Z"/><polygon class="cls-4" points="511.79 332.35 510.94 359 545.63 339.27 545.63 312.82 511.79 332.35"/><g id="Axonometric_Cube-8" data-name="Axonometric Cube"><polygon id="Cube_face_-_left-10" data-name="Cube face - left" class="cls-14" points="509.85 366.55 509.37 366.28 509.37 362.64 509.85 362.92 509.85 366.55"/><polygon id="Cube_face_-_right-10" data-name="Cube face - right" class="cls-12" points="548.64 344.16 509.85 366.55 509.85 362.92 548.64 340.52 548.64 344.16"/><polygon id="Cube_face_-_top-8" data-name="Cube face - top" class="cls-15" points="509.85 362.92 509.37 362.64 548.16 340.25 548.64 340.52 509.85 362.92"/></g><polygon class="cls-14" points="547.34 340.3 545.34 339.14 545.34 311.77 547.68 311.47 547.34 340.3"/><polygon class="cls-15" points="529.38 350.67 529.54 348.27 545.34 339.14 547.34 340.3 529.38 350.67"/><polygon class="cls-14" points="529.2 351.75 528.72 351.47 528.71 321.05 529.19 321.33 529.2 351.75"/><polygon class="cls-15" points="529.19 321.33 528.71 321.05 547.71 310.09 548.19 310.37 529.19 321.33"/><polygon class="cls-14" points="545.54 325.42 544.99 325.1 544.99 313.5 545.54 313.82 545.54 325.42"/><polygon class="cls-15" points="529.94 334.43 529.69 333.94 544.99 325.1 545.54 325.42 529.94 334.43"/><polygon class="cls-15" points="530.02 321.83 529.47 321.51 545.82 312.07 546.37 312.39 530.02 321.83"/><path class="cls-12" d="M529.66,322l16.71-9.65v13.5l-16.71,9.65Zm15.88,3.38v-11.6l-15.79,9.12v11.6l15.8-9.12Z"/><polygon class="cls-14" points="544.79 338.8 544.25 338.48 544.25 326.49 544.8 326.81 544.79 338.8"/><polygon class="cls-15" points="528.96 347.94 528.81 347.39 544.25 338.48 544.79 338.8 528.96 347.94"/><polygon class="cls-15" points="528.64 335.65 528.73 334.5 545.08 325.06 545.62 325.38 528.64 335.65"/><path class="cls-12" d="M528.53,335.24l17.09-9.86v13.89l-17.09,9.87Zm16.26,3.56v-12l-15.44,8.91v12l15.43-8.91Z"/><path class="cls-12" d="M529.19,321.33l19-11v30.41l-19,11Zm17.66,18.85V312.52l-17.06,9.85V350l17.06-9.85Z"/><polygon class="cls-14" points="529.21 350.46 527.48 349.45 527.48 322.08 529.13 322 529.21 350.46"/><path class="cls-15" d="M511.44,361l-.84-1.83,16.88-9.75,1.74,1a.17.17,0,0,1,0,.3Z"/><polygon class="cls-14" points="527.67 335.74 527.12 335.42 527.12 323.82 527.67 324.13 527.67 335.74"/><polygon class="cls-15" points="512.07 344.75 511.82 344.25 527.12 335.42 527.67 335.74 512.07 344.75"/><polygon class="cls-15" points="512.15 332.14 511.6 331.82 527.95 322.38 528.5 322.7 512.15 332.14"/><path class="cls-12" d="M511.79,332.35l16.71-9.65v13.51l-16.71,9.65Zm15.88,3.39V324.13l-15.79,9.12v11.61l15.8-9.12Z"/><polygon class="cls-14" points="526.92 349.12 526.37 348.8 526.38 336.81 526.93 337.13 526.92 349.12"/><polygon class="cls-15" points="511.09 358.26 510.94 357.71 526.37 348.8 526.92 349.12 511.09 358.26"/><polygon class="cls-15" points="510.77 345.97 510.86 344.81 527.2 335.38 527.75 335.69 510.77 345.97"/><path class="cls-12" d="M510.66,345.56l17.09-9.87v13.9l-17.1,9.87Zm16.26,3.56v-12L511.49,346v12l15.43-8.91Z"/><polygon class="cls-14" points="510.59 362.49 510.12 362.21 510.11 331.79 510.59 332.07 510.59 362.49"/><polygon class="cls-15" points="510.59 332.07 510.11 331.79 528.97 320.9 529.45 321.18 510.59 332.07"/><path class="cls-12" d="M510.59,332.07l18.86-10.89V351.6l-18.86,10.89ZM529,350.49V322.83l-17.06,9.85v27.66L529,350.49Z"/><path class="cls-4" d="M516.83,304.74a11.08,11.08,0,0,0-5,8.71c0,3.18,2.27,4.47,5.06,2.86a11.07,11.07,0,0,0,5-8.67C521.86,304.43,519.6,303.14,516.83,304.74Z"/><path class="cls-14" d="M520.86,305h-1.1a3,3,0,0,1,1.27,2.8,9.65,9.65,0,0,1-4.35,7.54,3.09,3.09,0,0,1-3.11.3l.3.74a3.19,3.19,0,0,0,3.19-.21c2.4-1.39,4.79-5.38,4.78-8.14C521.84,306.64,521.64,305.44,520.86,305Z"/><path class="cls-12" d="M517,304c3.12-1.8,5.67-.35,5.68,3.27a12.49,12.49,0,0,1-5.64,9.78c-3.15,1.81-5.7.36-5.71-3.23A12.51,12.51,0,0,1,517,304Zm0,11.56a9.69,9.69,0,0,0,4.36-7.55c0-2.78-2-3.88-4.39-2.49a9.55,9.55,0,0,0-4.35,7.54c0,2.76,2,3.9,4.38,2.5Z"/><path class="cls-14" d="M511.37,313.82a11.81,11.81,0,0,1,2.06-6.21l-.39-.23a11.87,11.87,0,0,0-2.06,6.21,4,4,0,0,0,1.65,3.63l.39.22A3.93,3.93,0,0,1,511.37,313.82Z"/><path class="cls-15" d="M520.67,303.38a4,4,0,0,0-4,.39,11.31,11.31,0,0,0-3.61,3.61l.39.23A11.21,11.21,0,0,1,517,304c1.57-.9,3-1,4-.39Z"/><polygon class="cls-4" points="386.94 480.63 527.51 399.34 563.89 434.99 423.31 516.27 386.94 480.63"/><polygon class="cls-15" points="423.31 516.27 563.89 434.99 563.87 439.76 423.3 521.05 423.31 516.27"/><polygon class="cls-15" points="386.94 480.63 423.31 516.27 423.3 521.05 386.92 485.41 386.94 480.63"/><g class="cls-8"><polygon class="cls-9" points="875.11 479.63 875.06 499.38 855.38 510.81 855.44 491.07 875.11 479.63"/><polygon class="cls-19" points="855.44 491.07 855.38 510.81 835.58 499.38 835.63 479.63 855.44 491.07"/><polygon class="cls-20" points="875.11 479.63 855.44 491.07 835.63 479.63 855.31 468.2 875.11 479.63"/></g><g class="cls-8"><polygon class="cls-9" points="898.83 493.33 898.77 513.07 879.1 524.5 879.15 504.76 898.83 493.33"/><polygon class="cls-19" points="879.15 504.76 879.1 524.5 859.29 513.07 859.35 493.32 879.15 504.76"/><polygon class="cls-20" points="898.83 493.33 879.15 504.76 859.35 493.32 879.02 481.89 898.83 493.33"/></g><g class="cls-8"><polygon class="cls-9" points="922.54 507.02 922.48 526.76 902.81 538.2 902.86 518.45 922.54 507.02"/><polygon class="cls-19" points="902.86 518.45 902.81 538.2 883 526.76 883.06 507.02 902.86 518.45"/><polygon class="cls-20" points="922.54 507.02 902.86 518.45 883.06 507.02 902.73 495.58 922.54 507.02"/></g><g class="cls-8"><polygon class="cls-19" points="906.72 519.9 906.77 539.65 926.45 551.08 926.39 531.34 906.72 519.9"/><polygon class="cls-19" points="926.39 531.34 926.45 551.08 946.25 539.65 946.2 519.9 926.39 531.34"/><polygon class="cls-20" points="906.72 519.9 926.39 531.34 946.2 519.9 926.52 508.47 906.72 519.9"/></g><g class="cls-8"><polygon points="741.95 413.43 741.93 441.86 736.52 445 736.53 416.57 741.95 413.43"/><polygon class="cls-21" points="736.53 416.57 736.52 445 731.07 441.86 731.08 413.43 736.53 416.57"/><polygon class="cls-21" points="741.95 413.43 736.53 416.57 731.08 413.43 736.5 410.28 741.95 413.43"/></g><g class="cls-8"><polygon class="cls-9" points="758.99 343.68 758.93 416.21 739.26 427.64 739.31 355.12 758.99 343.68"/><polygon class="cls-19" points="739.31 355.12 739.26 427.64 719.45 416.21 719.51 343.68 739.31 355.12"/><polygon class="cls-20" points="758.99 343.68 739.31 355.12 719.51 343.68 739.18 332.25 758.99 343.68"/></g><g class="cls-8"><polygon points="697.88 388.09 697.86 416.52 692.44 419.67 692.46 391.24 697.88 388.09"/><polygon class="cls-21" points="692.46 391.24 692.44 419.67 686.99 416.52 687.01 388.09 692.46 391.24"/><polygon class="cls-21" points="697.88 388.09 692.46 391.24 687.01 388.09 692.42 384.94 697.88 388.09"/></g><g class="cls-8"><polygon class="cls-9" points="714.91 318.35 714.86 390.87 695.18 402.3 695.24 329.78 714.91 318.35"/><polygon class="cls-19" points="695.24 329.78 695.18 402.3 675.38 390.87 675.44 318.35 695.24 329.78"/><polygon class="cls-20" points="714.91 318.35 695.24 329.78 675.44 318.35 695.11 306.91 714.91 318.35"/></g><g class="cls-8"><path class="cls-22" d="M670.15,130.23l11.66-6.78c2.68-1.55,6.39-1.33,10.49,1l-11.66,6.77C676.54,128.89,672.83,128.67,670.15,130.23Z"/><polygon class="cls-22" points="780.21 268.17 791.87 261.39 791.84 270.2 780.19 276.98 780.21 268.17"/><polygon class="cls-22" points="816.61 298 828.26 291.23 827.74 475.15 816.09 481.92 816.61 298"/><polygon class="cls-23" points="816.63 289.19 816.61 298 816.09 481.92 779.66 460.9 780.19 276.98 780.21 268.17 816.63 289.19"/><polygon class="cls-22" points="816.63 289.19 828.29 282.42 828.26 291.23 816.61 298 816.63 289.19"/><polygon class="cls-22" points="780.21 268.17 791.87 261.39 828.29 282.42 816.63 289.19 780.21 268.17"/><path class="cls-22" d="M938.54,349.87l-11.65,6.78c2.64-1.54,4.29-4.81,4.3-9.46l11.65-6.77C942.83,345.07,941.19,348.34,938.54,349.87Z"/><polygon class="cls-22" points="931.34 292.96 943 286.19 942.84 340.42 931.19 347.19 931.34 292.96"/><polygon class="cls-22" points="680.64 131.25 692.29 124.48 928.31 260.74 916.65 267.51 680.64 131.25"/><path class="cls-23" d="M916.65,267.51c8.14,4.7,14.72,16.1,14.69,25.45l-.15,54.23c0,9.36-6.65,13.13-14.79,8.43L816.61,298l0-8.81-36.42-21,0,8.81-99.8-57.62c-8.14-4.7-14.72-16.09-14.69-25.45l.15-54.23c0-9.35,6.65-13.13,14.79-8.43Z"/><path class="cls-22" d="M916.65,267.51l11.66-6.77c8.14,4.7,14.71,16.09,14.69,25.45L931.34,293C931.37,283.61,924.79,272.21,916.65,267.51Z"/></g><text class="cls-24" transform="matrix(0.52, 0.3, 0, 0.58, 676.39, 192.46)">FOR RENT</text><text class="cls-25" transform="matrix(0.52, 0.3, 0, 0.58, 1434.33, 252.41)">RENTAL</text><text class="cls-25" transform="matrix(0.52, 0.3, 0, 0.58, 1434.33, 312.33)">PROPERTY</text><g class="cls-8"><path class="cls-4" d="M1402.54,670l-8,4.64c4.29-2.5,7-7.81,7-15.35l8-4.64C1409.5,662.24,1406.84,667.54,1402.54,670Z"/><path class="cls-4" d="M1046.22,18.93l8-4.64c3.14-1.82,7.47-1.56,12.26,1.2l-8,4.64C1053.69,17.36,1049.36,17.11,1046.22,18.93Z"/><polygon class="cls-26" points="1041.13 51.66 1049.12 47.02 1410.65 255.76 1402.67 260.39 1041.13 51.66"/><polygon class="cls-4" points="1402.67 260.39 1410.65 255.76 1409.52 654.69 1401.54 659.33 1402.67 260.39"/><path class="cls-7" d="M1402.67,260.39l-1.13,398.94c0,15.19-10.79,21.31-24,13.68l-313.67-181.1c-13.22-7.63-23.9-26.13-23.86-41.31l1.14-398.94Z"/><polygon class="cls-4" points="1402.73 238.71 1410.71 234.07 1410.65 255.76 1402.67 260.39 1402.73 238.71"/><polygon class="cls-4" points="1058.48 20.13 1066.46 15.49 1393.54 204.33 1385.56 208.97 1058.48 20.13"/><path class="cls-3" d="M1385.56,209c9.51,5.49,17.2,18.81,17.17,29.74l-.06,21.68L1041.14,51.66,1041.2,30c0-10.93,7.76-15.35,17.28-9.85Z"/><path class="cls-4" d="M1385.56,209l8-4.64c9.51,5.49,17.2,18.81,17.17,29.74l-8,4.64C1402.76,227.78,1395.07,214.46,1385.56,209Z"/></g><ellipse class="cls-7" cx="1325.31" cy="195.65" rx="6.01" ry="10.42" transform="translate(82.86 696.7) rotate(-30.36)"/><ellipse class="cls-7" cx="1345.43" cy="207.27" rx="6.01" ry="10.42" transform="translate(79.75 708.46) rotate(-30.36)"/><ellipse class="cls-7" cx="1365.55" cy="218.89" rx="6.01" ry="10.42" transform="translate(76.63 720.22) rotate(-30.36)"/><path class="cls-3" d="M1354,336.5,1079.25,177.86c-8.65-5-15.65-18.37-15.65-29.9V128.81c0-11.52,7-16.82,15.65-11.83L1354,275.62c8.64,5,15.65,18.37,15.65,29.9v19.15C1369.66,336.19,1362.65,341.49,1354,336.5Z"/><path class="cls-3" d="M1353.77,444.31,1079.49,286c-8.78-5.07-15.89-18.66-15.89-30.36V235.2c0-11.7,7.11-17.07,15.89-12l274.28,158.36c8.78,5.07,15.89,18.66,15.89,30.36V432.3C1369.66,444,1362.55,449.38,1353.77,444.31Z"/><text class="cls-27" transform="matrix(0.52, 0.3, 0, 0.58, 1063.89, 97.32)">Purchase Price:</text><text class="cls-28" transform="matrix(0.52, 0.3, 0, 0.58, 1218.37, 240.13)">$300000</text><text class="cls-28" transform="matrix(0.52, 0.3, 0, 0.58, 1253.96, 370.51)">$7000</text><text class="cls-27" transform="matrix(0.52, 0.3, 0, 0.58, 1063.89, 205.91)">Closing Cost:</text><path class="cls-3" d="M1353.77,621,1079.49,462.64c-8.78-5.07-15.89-18.66-15.89-30.36V411.89c0-11.71,7.11-17.08,15.89-12l274.28,158.36c8.78,5.07,15.89,18.66,15.89,30.36V609C1369.66,620.68,1362.55,626.06,1353.77,621Z"/><text class="cls-29" transform="matrix(0.52, 0.3, 0, 0.58, 1133.66, 474.31)">$2200</text><text class="cls-29" transform="matrix(0.52, 0.3, 0, 0.58, 1320.64, 582.27)">3%</text><text class="cls-30" transform="matrix(0.52, 0.3, 0, 0.58, 1064.44, 385.6)">Rental Price:</text><text class="cls-30" transform="matrix(0.52, 0.3, 0, 0.58, 1247.78, 491.34)">Annual Increase:</text><line class="cls-7" x1="1221.83" y1="466.36" x2="1221.83" y2="553.92"/><rect class="cls-7" x="1220.4" y="466.36" width="2.87" height="87.56"/><polygon class="cls-7" points="1715.33 753.48 1428.07 587.63 1428.07 336.02 1715.33 501.87 1715.33 753.48"/><text class="cls-31" transform="matrix(0.52, 0.3, 0, 0.58, 1436.46, 388.16)">Return (IRR)<tspan x="0" y="60.37">Total Proft (Sold)</tspan><tspan x="0" y="120.74">Total Rental Income</tspan></text><text class="cls-31" transform="matrix(0.52, 0.3, 0, 0.58, 1612.8, 492.55)">13.21%<tspan x="0" y="60.37">$535,181.18</tspan><tspan x="0" y="120.74">$673,908.99</tspan></text><path class="cls-4" d="M1591,586.94h0l-11.51,34a117.85,117.85,0,0,1,25.07,35.36l30.12-7.7C1624,625.46,1608.75,603.77,1591,586.94Z"/><path class="cls-4" d="M1564,566.48a91.32,91.32,0,0,0-27-10.72L1548.54,603a51.91,51.91,0,0,1,15.49,6.14,82.91,82.91,0,0,1,15.49,11.74l11.51-34A144.7,144.7,0,0,0,1564,566.48Z"/><path class="cls-32" d="M1493.35,567c-10.49,10.46-16.67,27.23-16.67,49.24l37.23,21.49h0c0-12.62,3.55-22.24,9.57-28.24Z"/><path class="cls-3" d="M1537,555.76c-17.71-3.63-32.94.48-43.68,11.19l30.13,42.48c6.16-6.15,14.89-8.5,25.06-6.41Z"/><path class="cls-4" d="M1634.71,648.56l-30.12,7.7c6,13,9.56,26.67,9.56,39.29h0l37.24,21.49C1651.39,695.05,1645.2,671.14,1634.71,648.56Z"/></svg>